<!DOCTYPE svg PUBLIC "-//W3C//DTD SVG 1.1//EN" "http://www.w3.org/Graphics/SVG/1.1/DTD/svg11.dtd">
<!-- Uploaded to: SVG Repo, www.svgrepo.com, Transformed by: SVG Repo Mixer Tools -->
<svg height="64px" width="64px" version="1.1" id="Layer_1" xmlns="http://www.w3.org/2000/svg" xmlns:xlink="http://www.w3.org/1999/xlink" viewBox="0 0 503.98 503.98" xml:space="preserve" fill="#404040" stroke="#404040">
<g id="SVGRepo_bgCarrier" stroke-width="0"/>
<g id="SVGRepo_tracerCarrier" stroke-linecap="round" stroke-linejoin="round"/>
<g id="SVGRepo_iconCarrier"> <g> <path style="fill:#c4c4c4;" d="M269.196,218.229c0,5.036-3.357,8.393-8.393,8.393h-16.787c-5.036,0-8.393-3.357-8.393-8.393 h-17.626c-5.036,28.538-32.734,64.63-32.734,167.869c0,0,0.839,73.862,8.393,93.167c5.036,13.43,24.341,15.948,40.289,15.948 c7.554,0,14.269,0,18.466,0l0,0l0,0l0,0l0,0l0,0l0,0l0,0c4.197,0,10.911,0,18.466,0c15.108,0,34.413-3.357,40.289-15.948 c8.393-19.305,8.393-93.167,8.393-93.167c0-103.239-27.698-138.492-32.734-167.869H269.196z"/> <path style="fill:#c4c4c4;" d="M369.918,386.098c0-103.239-42.807-139.331-50.361-167.869h-50.361c0,5.036-3.357,8.393-8.393,8.393 h-16.787c-5.036,0-8.393-3.357-8.393-8.393h-50.361c-7.554,28.538-50.361,64.63-50.361,167.869c0,0,0,73.862,14.269,93.167 c14.269,20.144,83.934,15.948,103.239,15.948s88.97,4.197,103.239-15.948C369.918,459.961,369.918,386.098,369.918,386.098"/> <path style="fill:#c4c4c4;" d="M385.026,41.967c-4.197-10.072-13.43-16.787-24.341-16.787h-11.751 c-2.518,0-5.036-0.839-8.393-1.679C316.2,15.948,284.305,8.393,252.409,8.393s-63.79,7.554-88.131,15.108 c-2.518,0.839-5.875,1.679-8.393,1.679h-11.751c-10.911,0-20.144,6.715-24.341,16.787c-5.036,12.59,0,26.859,12.59,33.574 c7.554,4.197,15.948,9.233,18.466,16.787c5.875,13.43,26.859,58.754,33.574,93.167h50.361c0-5.036,3.357-8.393,8.393-8.393h16.787 c5.036,0,8.393,3.357,8.393,8.393h50.361c7.554-33.574,27.698-79.738,33.574-93.167c3.357-7.554,10.911-12.59,18.466-16.787 C384.186,68.826,390.062,54.557,385.026,41.967"/> </g> <path style="fill:#ff7300;" d="M317.878,17.626c-20.144-5.036-42.807-9.233-65.469-9.233s-45.325,4.197-65.469,9.233 c6.715,18.466,33.574,32.734,65.469,32.734S311.164,36.092,317.878,17.626"/> <g> <path style="fill:#f7f8f7;" d="M260.803,226.623h-16.787c-5.036,0-8.393-3.357-8.393-8.393v-33.574 c0-5.036,3.357-8.393,8.393-8.393h16.787c5.036,0,8.393,3.357,8.393,8.393v33.574C269.196,222.426,265.839,226.623,260.803,226.623 "/> <polygon style="fill:#f7f8f7;" points="269.196,218.229 319.557,218.229 319.557,184.656 269.196,184.656 "/> </g> <g> <path style="fill:#FFFFFF;" d="M252.409,495.213c-19.305,0-88.97,4.197-103.239-15.948c-14.269-19.305-14.269-93.167-14.269-93.167 c0-103.239,42.807-139.331,50.361-167.869h16.787c-7.554,28.538-50.361,64.63-50.361,167.869c0,0,0,73.862,14.269,93.167 c14.269,19.305,83.934,15.948,103.239,15.948H252.409z"/> <path style="fill:#FFFFFF;" d="M160.921,24.341c-10.911,0-20.144,6.715-24.341,16.787c-5.036,12.59,0,26.859,12.59,33.574 c7.554,4.197,15.948,9.233,18.466,16.787c5.875,13.43,26.859,58.754,33.574,93.167h-16.787 c-7.554-33.574-27.698-79.738-33.574-93.167c-3.357-7.554-10.911-12.59-18.466-16.787c-12.59-5.875-17.626-20.984-12.59-33.574 c4.197-10.072,13.43-16.787,24.341-16.787h11.751L160.921,24.341z"/> </g> <polygon style="fill:#f7f8f7;" points="185.262,218.229 235.623,218.229 235.623,184.656 185.262,184.656 "/> <polygon style="fill:#FFFFFF;" points="185.262,218.229 185.262,184.656 202.049,184.656 202.049,217.39 "/> <g> <path style="fill:#ff7300;" d="M252.409,495.213c19.305,0,88.97,4.197,103.239-15.948c14.269-19.305,14.269-93.167,14.269-93.167 c0-103.239-42.807-139.331-50.361-167.869H302.77c7.554,28.538,50.361,64.63,50.361,167.869c0,0,0,73.862-14.269,93.167 s-83.934,15.948-103.239,15.948H252.409z"/> <path style="fill:#ff7300;" d="M343.898,24.341c10.911,0,20.144,6.715,24.341,16.787c5.036,12.59,0,26.859-12.59,33.574 c-7.554,4.197-15.948,9.233-18.466,16.787c-5.875,13.43-26.859,58.754-33.574,93.167h16.787 c7.554-33.574,27.698-79.738,33.574-93.167c3.357-7.554,10.911-12.59,18.466-16.787c12.59-5.875,17.626-20.984,12.59-33.574 c-4.197-10.072-13.43-16.787-24.341-16.787h-11.751L343.898,24.341z"/> </g> <polygon style="fill:#f7f8f7;" points="319.557,218.229 319.557,184.656 302.77,184.656 302.77,217.39 "/> <path d="M252.409,58.754c-35.252,0-65.469-15.948-73.862-38.61c0-2.518,0-5.036,0.839-6.715c0.839-1.679,3.357-3.357,5.036-4.197 C208.764,3.357,231.426,0,252.409,0s43.646,3.357,67.987,9.233c2.518,0.839,4.197,1.679,5.036,4.197 c0.839,1.679,1.679,4.197,0.839,6.715C317.878,42.807,287.662,58.754,252.409,58.754z M199.531,22.662 c10.072,11.751,30.216,19.305,52.879,19.305s42.807-7.554,52.879-19.305c-19.305-4.197-36.931-5.875-52.879-5.875 S218.836,18.466,199.531,22.662z"/> <path d="M260.803,235.016h-16.787c-9.233,0-16.787-7.554-16.787-16.787v-33.574c0-9.233,7.554-16.787,16.787-16.787h16.787 c9.233,0,16.787,7.554,16.787,16.787v33.574C277.59,227.462,270.036,235.016,260.803,235.016z M244.016,184.656v33.574h16.787 v-33.574H244.016z"/> <path d="M319.557,226.623h-50.361c-5.036,0-8.393-3.357-8.393-8.393v-33.574c0-5.036,3.357-8.393,8.393-8.393h50.361 c5.036,0,8.393,3.357,8.393,8.393v33.574C327.95,222.426,324.593,226.623,319.557,226.623z M277.59,209.836h33.574v-16.787H277.59 V209.836z"/> <path d="M235.623,226.623h-50.361c-5.036,0-8.393-3.357-8.393-8.393v-33.574c0-5.036,3.357-8.393,8.393-8.393h50.361 c5.036,0,8.393,3.357,8.393,8.393v33.574C244.016,222.426,240.659,226.623,235.623,226.623z M193.655,209.836h33.574v-16.787 h-33.574V209.836z"/> <path d="M233.944,503.607L233.944,503.607c-10.072,0-39.449-0.839-47.843-20.984c-8.393-20.144-9.233-88.97-9.233-96.525 c0-76.38,15.108-116.669,25.18-144.367c3.357-10.072,6.715-18.466,7.554-25.18c0.839-4.197,4.197-6.715,8.393-6.715h17.626 c5.036,0,8.393,3.357,8.393,8.393h16.787c0-5.036,3.357-8.393,8.393-8.393h17.626c4.197,0,7.554,2.518,8.393,6.715 c1.679,7.554,4.197,15.108,7.554,25.18c10.072,26.859,25.18,67.987,25.18,143.528c0,7.554-0.839,76.38-9.233,96.525 c-8.393,20.144-37.771,20.984-47.843,20.984l-10.072,0.839c-2.518,0-5.036,0-6.715,0c-2.518,0.839-5.875,0-10.072,0H233.944 L233.944,503.607z M224.711,226.623c-1.679,6.715-4.197,13.43-7.554,20.984c-9.233,26.02-23.502,65.469-23.502,138.492 c0,20.144,1.679,75.541,8.393,89.81c2.518,6.715,14.269,10.072,31.895,10.911h10.072c2.518,0,5.036,0,6.715,0 c3.357-0.839,6.715,0,10.911,0h9.233c18.466,0,29.377-4.197,31.895-10.911c5.875-15.108,7.554-70.505,8.393-90.649 c0-73.023-14.269-112.472-23.502-137.652c-2.518-7.554-5.036-14.269-6.715-20.984h-5.036c-2.518,5.036-8.393,8.393-14.269,8.393 h-16.787c-5.875,0-11.751-3.357-14.269-8.393L224.711,226.623L224.711,226.623z"/> <path d="M278.429,503.607L278.429,503.607c-6.715,0-12.59,0-17.626,0c-6.715,0-10.072,0-16.787,0c-5.036,0-10.911,0-17.626,0 c-48.682,0-74.702-5.875-83.934-19.305c-15.948-20.984-15.948-90.649-15.948-98.203c0-76.38,23.502-117.508,38.61-145.207 c5.875-10.072,10.072-17.626,11.751-25.18c1.679-3.357,4.197-5.875,8.393-5.875h50.361c5.036,0,8.393,3.357,8.393,8.393h16.787 c0-5.036,3.357-8.393,8.393-8.393h50.361c4.197,0,6.715,2.518,8.393,5.875c1.679,6.715,6.715,15.108,11.751,25.18 c15.108,26.859,38.61,68.826,38.61,145.207c0,7.554,0,77.22-15.948,98.203C353.131,497.731,327.111,503.607,278.429,503.607z M252.409,486.82c2.518,0,5.036,0,9.233,0c5.036,0,10.911,0,17.626,0c53.718,0,67.148-7.554,70.505-12.59 c8.393-12.59,11.751-60.433,11.751-88.131c0-72.184-20.984-109.954-36.092-136.813c-5.036-8.393-8.393-15.108-11.751-22.662h-37.77 c-2.518,5.036-8.393,8.393-14.269,8.393h-16.787c-5.875,0-11.751-3.357-14.269-8.393h-39.449 c-2.518,6.715-6.715,14.269-11.751,22.662c-15.108,26.859-36.092,64.63-36.092,136.813c0,27.698,3.357,75.541,12.59,88.131 c3.357,5.036,16.787,12.59,70.505,12.59c6.715,0,12.59,0,17.626,0C247.373,486.82,249.891,486.82,252.409,486.82z"/> <path d="M319.557,193.049h-50.361c-5.036,0-8.393-3.357-8.393-8.393h-16.787c0,5.036-3.357,8.393-8.393,8.393h-50.361 c-4.197,0-7.554-2.518-8.393-6.715c-6.715-31.056-25.18-73.023-31.895-88.97l-1.679-2.518c-1.679-4.197-6.715-8.393-15.108-12.59 c-15.948-7.554-23.502-26.859-16.787-43.646c5.875-13.43,18.466-21.823,32.734-21.823h11.751c1.679,0,3.357,0,5.036-0.839 C194.495,5.036,224.711,0,252.409,0s57.915,5.036,90.649,15.948c2.518,0.839,4.197,0.839,5.875,0.839h11.751 c14.269,0,26.859,8.393,31.895,21.823c6.715,16.787-0.839,36.092-16.787,43.646c-7.554,4.197-12.59,8.393-15.108,12.59l-1.679,2.518 c-6.715,15.948-25.18,57.915-31.895,88.131C327.111,190.531,323.754,193.049,319.557,193.049z M275.072,176.262h37.771 c7.554-31.895,25.18-69.666,31.895-84.774l1.679-2.518c3.357-8.393,10.911-15.108,22.662-20.984 c8.393-4.197,11.751-14.269,8.393-22.662c-2.518-6.715-9.233-10.911-16.787-10.911h-11.751c-3.357,0-7.554-0.839-10.911-1.679 c-31.056-10.911-59.593-15.948-85.613-15.948s-54.557,5.036-85.613,15.108c-3.357,0.839-7.554,1.679-10.911,1.679h-11.751 c-7.554,0-14.269,4.197-16.787,10.911c-3.357,8.393,0,18.466,8.393,22.662c11.751,5.875,19.305,12.59,22.662,20.984l1.679,2.518 c6.715,15.108,23.502,53.718,31.895,85.613h37.77c2.518-5.036,8.393-8.393,14.269-8.393h16.787 C266.678,167.869,272.554,171.226,275.072,176.262z"/> </g>
</svg>