<!DOCTYPE svg PUBLIC "-//W3C//DTD SVG 1.1//EN" "http://www.w3.org/Graphics/SVG/1.1/DTD/svg11.dtd">
<!-- Uploaded to: SVG Repo, www.svgrepo.com, Transformed by: SVG Repo Mixer Tools -->
<svg height="64px" width="64px" version="1.1" id="_x32_" xmlns="http://www.w3.org/2000/svg" xmlns:xlink="http://www.w3.org/1999/xlink" viewBox="0 0 512 512" xml:space="preserve" fill="#F3755F" stroke="#F3755F" stroke-width="32.256">
<g id="SVGRepo_bgCarrier" stroke-width="0"/>
<g id="SVGRepo_tracerCarrier" stroke-linecap="round" stroke-linejoin="round" stroke="#CCCCCC" stroke-width="3.072"/>
<g id="SVGRepo_iconCarrier"> <style type="text/css"> .st0{fill:#F3755F;} </style> <g> <path class="st0" d="M150.932,218.624c10.84,3.192,23.58,4.988,37.258,4.996c18.245-0.023,34.79-3.17,47.434-8.668 c6.318-2.771,11.72-6.126,15.866-10.39c4.108-4.204,7.071-9.718,7.064-15.939c0.007-6.222-2.956-11.742-7.064-15.94 c-6.237-6.362-15.216-10.825-26.048-14.062c-10.833-3.192-23.572-4.995-37.251-4.995c-18.244,0.014-34.79,3.162-47.441,8.668 c-6.318,2.771-11.72,6.125-15.865,10.389c-4.108,4.198-7.072,9.718-7.065,15.94c-0.007,6.221,2.956,11.734,7.065,15.939 C131.12,210.917,140.106,215.387,150.932,218.624z M135.754,183.213c3.303-3.495,10.249-7.404,19.464-10.079 c9.207-2.72,20.64-4.382,32.972-4.374c16.434-0.023,31.288,2.97,41.374,7.404c5.04,2.187,8.846,4.744,11.048,7.05 c2.246,2.357,2.8,4.05,2.808,5.41c-0.008,1.352-0.562,3.052-2.808,5.409c-3.296,3.488-10.242,7.404-19.457,10.079 c-9.207,2.72-20.632,4.375-32.965,4.375c-16.441,0.014-31.294-2.971-41.381-7.404c-5.04-2.188-8.846-4.744-11.054-7.05 c-2.246-2.357-2.794-4.057-2.801-5.409C132.96,187.263,133.508,185.57,135.754,183.213z"/> <path class="st0" d="M288.2,109.155c0.044,0.015,0.096,0.029,0.14,0.044l0.584,0.17L288.2,109.155z"/> <path class="st0" d="M88.172,402.845c-0.059-0.014-0.119-0.037-0.178-0.059l-0.732-0.214L88.172,402.845z"/> <path class="st0" d="M376.372,243.659v-55.037c0.008-8.114-1.929-15.888-5.224-22.922c-3.304-7.05-7.929-13.397-13.42-19.043 c-16.412-16.766-40.488-28.812-69.388-37.458l-0.155-0.044c-29.041-8.564-63.262-13.397-99.996-13.405 c-48.993,0.044-93.448,8.528-127.262,23.24l-0.015,0.008c-16.885,7.404-31.316,16.405-42.276,27.666 C13.154,152.303,8.528,158.65,5.225,165.7C1.929,172.735-0.008,180.509,0,188.623v134.756c-0.008,8.113,1.929,15.88,5.225,22.915 c3.303,7.05,7.929,13.397,13.412,19.043c16.413,16.766,40.472,28.812,69.358,37.45l0.192,0.059 c29.049,8.565,63.262,13.39,100.003,13.405H512v-172.59H376.372z M37.658,165.101c11.38-11.838,31.82-22.856,58.03-30.548 c26.204-7.737,58.119-12.326,92.502-12.319c45.838-0.022,87.308,8.18,116.659,21.031c14.676,6.399,26.27,13.966,33.866,21.836 c7.634,7.929,11.166,15.739,11.174,23.521c-0.008,7.773-3.54,15.592-11.174,23.521c-11.38,11.83-31.819,22.848-58.03,30.541 c-26.204,7.744-58.112,12.326-92.496,12.326c-45.845,0.015-87.314-8.187-116.666-21.031c-14.676-6.399-26.27-13.966-33.866-21.836 c-7.634-7.929-11.166-15.748-11.174-23.521C26.492,180.841,30.024,173.03,37.658,165.101z M349.888,222.341v32.669h-58.23 c6.746-2.202,13.256-4.552,19.249-7.168c15.954-6.983,29.145-15.348,38.684-25.176L349.888,222.341z M485.516,389.766h-45.402 v-66.854h-15.134v66.854h-33.416v-36.209h-15.134v36.209h-33.423v-66.854h-15.134v66.854h-33.423v-36.209h-15.134v36.209h-33.415 v-66.854h-15.134v66.854h-33.415v-36.209h-15.134v36.076c-11.491-0.177-22.657-0.857-33.423-2.01v-64.711h-15.134v62.76 c-23.772-3.621-45.054-9.459-62.138-16.937c-14.676-6.399-26.27-13.966-33.866-21.836c-7.634-7.93-11.166-15.748-11.174-23.521 V222.341l0.296,0.325c14.314,14.706,36.8,26.277,64.621,34.532c27.83,8.217,61.053,12.939,96.788,12.946h297.326V389.766z"/> </g> </g>
</svg>