<?xml version="1.0" ?>

<!-- Uploaded to: SVG Repo, www.svgrepo.com, Generator: SVG Repo Mixer Tools -->
<svg fill="#494646" width="800px" height="800px" viewBox="0 0 100 100" version="1.1" xml:space="preserve" xmlns="http://www.w3.org/2000/svg" xmlns:xlink="http://www.w3.org/1999/xlink">

<g id="hairdryer"/>

<g id="scissor">

<g>

<path d="M96,5.2c0-0.1,0-0.2,0-0.3c0,0,0-0.1,0-0.1c0-0.1,0-0.1-0.1-0.2c0,0,0-0.1-0.1-0.1c0-0.1-0.1-0.1-0.1-0.2c0,0,0,0,0,0    c0,0,0,0-0.1,0c0,0,0,0-0.1-0.1c0,0-0.1,0-0.1,0c0,0-0.1,0-0.1-0.1c-0.1,0-0.1,0-0.2-0.1c0,0-0.1,0-0.1,0c-0.1,0-0.1,0-0.2,0    c0,0-0.1,0-0.1,0c-0.1,0-0.2,0.1-0.3,0.1l-0.6,0.4L42,38.8c0,0-0.1,0.1-0.1,0.1l-2.8,1.8c-1.7,1.1-3.2,2.7-4.3,4.5l-7.6,13.2    c-4.3-4.3-11.3-4.3-15.6,0l-4.4,4.4C5.1,65,4,67.8,4,70.7s1.1,5.7,3.2,7.8c2.2,2.2,5,3.2,7.8,3.2c1.3,0,2.6-0.2,3.9-0.7    c-1.5,3.9-0.6,8.5,2.5,11.7c2.1,2.1,4.9,3.2,7.8,3.2s5.7-1.1,7.8-3.2l4.4-4.4c4.3-4.3,4.3-11.3,0-15.6l13.2-7.7    c1.8-1,3.4-2.5,4.5-4.3l1.9-2.9l14.1-15C85.3,32.4,92.4,19.4,96,5.2C96,5.2,96,5.2,96,5.2C96,5.2,96,5.2,96,5.2z M8.7,77.1    c-1.7-1.7-2.7-4-2.7-6.4s0.9-4.7,2.7-6.4l4.4-4.4c3.5-3.5,9.3-3.5,12.8,0c0.4,0.4,1,0.6,1.6,0.6c0.6-0.1,1.1-0.4,1.4-1l7.7-13.2    c0.9-1.5,2.1-2.9,3.6-3.8l1.9-1.2l3.2,7.4c0.4,1,0.7,2.1,0.8,3.1c-4.5,0.2-8.6,2.6-11,6.6L27.6,71l-6.1,6.1    C17.9,80.7,12.2,80.7,8.7,77.1z M46.2,53.8c-0.2,3.7-2.2,7.3-5.6,9.3l-9.4,5.6l5.6-9.4C38.9,56,42.4,53.9,46.2,53.8z M57.6,59.7    c-1,1.5-2.3,2.7-3.9,3.6L40.5,71c-0.5,0.3-0.9,0.8-1,1.4c-0.1,0.6,0.1,1.2,0.6,1.6c3.5,3.5,3.5,9.3,0,12.8l-4.4,4.4    c-1.7,1.7-4,2.7-6.4,2.7s-4.7-0.9-6.4-2.7c-3.5-3.5-3.5-9.3,0-12.8l6.1-6.1l12.7-7.6c4.3-2.6,6.7-7.2,6.6-12c0,0,0,0,0,0    c0,0,0,0,0,0c0-1.7-0.4-3.3-1.1-4.9L43.8,40L91.5,8.5L57.6,59.7z M73.8,41.6l-6.2,6.6l24.5-37.1C88.3,22.5,82.1,32.9,73.8,41.6z"/>

<path d="M22.3,62.4c-1.6-1.6-4.1-1.6-5.7,0l-5.5,5.5c-0.8,0.8-1.2,1.8-1.2,2.8s0.4,2.1,1.2,2.8l1.1,1.1c0.8,0.8,1.8,1.2,2.8,1.2    s2-0.4,2.8-1.2l5.5-5.5c1.6-1.6,1.6-4.1,0-5.7L22.3,62.4z M22,67.7l-5.5,5.5c-0.8,0.8-2,0.8-2.8,0l-1.1-1.1    c-0.4-0.4-0.6-0.9-0.6-1.4s0.2-1,0.6-1.4l5.5-5.5c0.4-0.4,0.9-0.6,1.4-0.6c0.5,0,1,0.2,1.4,0.6l1.1,1.1    C22.8,65.7,22.8,66.9,22,67.7z"/>

<path d="M36.5,76.6c-1.6-1.6-4.1-1.6-5.7,0l-5.5,5.5c-1.6,1.6-1.6,4.1,0,5.7l1.1,1.1c0.8,0.8,1.8,1.2,2.8,1.2s2.1-0.4,2.8-1.2    l5.5-5.5c1.6-1.6,1.6-4.1,0-5.7L36.5,76.6z M36.2,81.9l-5.5,5.5c-0.8,0.8-2.1,0.8-2.8,0l-1.1-1.1c-0.8-0.8-0.8-2,0-2.8l5.5-5.5    c0.4-0.4,0.9-0.6,1.4-0.6s1,0.2,1.4,0.6l1.1,1.1C37,79.9,37,81.1,36.2,81.9z"/>

<path d="M60.2,39.8C59.1,38.6,57.6,38,56,38s-3.1,0.6-4.2,1.8S50,42.4,50,44c0,1.4,0.5,2.8,1.4,3.9c0,0.2,0.1,0.4,0.3,0.5    s0.3,0.2,0.5,0.3c1.1,0.9,2.4,1.4,3.9,1.4c1.6,0,3.1-0.6,4.2-1.8S62,45.6,62,44S61.4,40.9,60.2,39.8z M53.2,41.2    C54,40.4,55,40,56,40c0.7,0,1.4,0.2,2,0.6L52.6,46C51.7,44.5,51.9,42.5,53.2,41.2z M58.8,46.8c-1.3,1.3-3.3,1.5-4.8,0.6l5.5-5.5    C60.3,43.5,60.1,45.5,58.8,46.8z"/>

</g>

</g>

<g id="razor"/>

<g id="razor_blade_1_"/>

<g id="comb"/>

<g id="shaving_machine"/>

<g id="barbershop"/>

<g id="barber_pole"/>

<g id="hairstylist"/>

<g id="kids"/>

<g id="mature"/>

<g id="woman"/>

<g id="moustache"/>

<g id="hair_gel"/>

<g id="shampoo"/>

<g id="mirror"/>

<g id="spray"/>

<g id="apron"/>

<g id="chair"/>

<g id="mask"/>

</svg>