<!DOCTYPE svg PUBLIC "-//W3C//DTD SVG 1.1//EN" "http://www.w3.org/Graphics/SVG/1.1/DTD/svg11.dtd">
<!-- Uploaded to: SVG Repo, www.svgrepo.com, Transformed by: SVG Repo Mixer Tools -->
<svg fill="#F3755F" height="64px" width="64px" version="1.1" id="Layer_1" xmlns="http://www.w3.org/2000/svg" xmlns:xlink="http://www.w3.org/1999/xlink" viewBox="0 0 512 512" xml:space="preserve" stroke="#F3755F" stroke-width="22.528">
<g id="SVGRepo_bgCarrier" stroke-width="0"/>
<g id="SVGRepo_tracerCarrier" stroke-linecap="round" stroke-linejoin="round"/>
<g id="SVGRepo_iconCarrier"> <g> <g> <path d="M449.12,80H58.72C35.564,80,16,98.584,16,120.588v107.068C16,249.524,35.564,268,58.716,268h38.4 C118.92,268,136,250.276,136,227.656V212h168v168c0,2.212,1.788,4,4,4c2.212,0,4-1.788,4-4V208c0-2.212-1.788-4-4-4H132 c-2.212,0-4,1.788-4,4v19.656C128,246.092,114.724,260,97.12,260h-38.4C40.224,260,24,244.888,24,227.656V120.588 C24,103.232,40.224,88,58.716,88h390.4C466.724,88,480,102.008,480,120.588V380c0,2.212,1.788,4,4,4c2.212,0,4-1.788,4-4V120.588 C488,97.828,470.92,80,449.12,80z"/> </g> </g> <g> <g> <path d="M76,304c-2.212,0-4,1.788-4,4v48c0,2.212,1.788,4,4,4s4-1.788,4-4v-48C80,305.788,78.212,304,76,304z"/> </g> </g> <g> <g> <path d="M76,68c-2.212,0-4,1.788-4,4v12c0,2.212,1.788,4,4,4s4-1.788,4-4V72C80,69.788,78.212,68,76,68z"/> </g> </g> <g> <g> <path d="M489.856,376H21.96C11.592,376,0,384.588,0,396.084V452c0,2.212,1.788,4,4,4h500c2.212,0,4-1.788,4-4v-55.916 C508,384.448,500.372,376,489.856,376z M500,448H8v-51.916C8,389.988,14.916,384,21.96,384h467.896 c7.008,0,10.144,6.068,10.144,12.084V448z"/> </g> </g> <g> <g> <path d="M84,264c-2.212,0-4,1.788-4,4v32h-8v-32c0-2.212-1.788-4-4-4s-4,1.788-4,4v36c0,2.212,1.788,4,4,4h16c2.212,0,4-1.788,4-4 v-36C88,265.788,86.212,264,84,264z"/> </g> </g> <g> <g> <path d="M493.856,124H484c-2.212,0-4,1.788-4,4c0,2.212,1.788,4,4,4h9.856c6.968,0,10.144,6.372,10.144,12.292v47.544 c0,5.86-3.176,12.164-10.144,12.164H484c-2.212,0-4,1.788-4,4c0,2.212,1.788,4,4,4h9.856c10.512,0,18.144-8.48,18.144-20.164 v-47.544C512,132.536,504.368,124,493.856,124z"/> </g> </g> <g> <g> <path d="M397.752,204.036c-28.696,0-52.044,23.348-52.044,52.048c0,28.696,23.348,52.04,52.044,52.04s52.04-23.344,52.04-52.04 C449.792,227.384,426.448,204.036,397.752,204.036z M397.752,300.128c-24.288,0-44.044-19.756-44.044-44.04 c0-24.292,19.76-44.048,44.044-44.048c24.288,0,44.04,19.756,44.04,44.048C441.792,280.376,422.04,300.128,397.752,300.128z"/> </g> </g> <g> <g> <path d="M427.396,243.596c-0.86-2.04-3.208-2.98-5.24-2.136c-2.036,0.856-2.992,3.204-2.136,5.24 c1.256,2.976,1.888,6.14,1.888,9.388c0,13.32-10.84,24.16-24.16,24.16c-13.324,0-24.164-10.84-24.164-24.16 c0-13.324,10.84-24.164,24.164-24.164c3.772,0,7.38,0.844,10.74,2.508c1.972,0.988,4.38,0.172,5.36-1.804 c0.984-1.98,0.176-4.38-1.804-5.36c-4.472-2.22-9.28-3.344-14.292-3.344c-17.736,0-32.164,14.428-32.164,32.164 c0,17.736,14.428,32.16,32.164,32.16c17.736,0,32.164-14.428,32.156-32.164C429.908,251.764,429.064,247.56,427.396,243.596z"/> </g> </g> <g> <g> <path d="M424,320h-56c-6.616,0-12,5.384-12,12v8c0,6.616,5.384,12,12,12h56c6.616,0,12-5.384,12-12v-8 C436,325.384,430.616,320,424,320z M428,340c0,2.208-1.792,4-4,4h-56c-2.208,0-4-1.792-4-4v-8c0-2.208,1.792-4,4-4h56 c2.208,0,4,1.792,4,4V340z"/> </g> </g> <g> <g> <path d="M396,320c-2.212,0-4,1.788-4,4v24c0,2.212,1.788,4,4,4c2.212,0,4-1.788,4-4v-24C400,321.788,398.212,320,396,320z"/> </g> </g> <g> <g> <path d="M408,136H20c-2.212,0-4,1.788-4,4c0,2.212,1.788,4,4,4h388c2.212,0,4-1.788,4-4C412,137.788,410.212,136,408,136z"/> </g> </g> <g> <g> <path d="M484,136h-40c-2.212,0-4,1.788-4,4c0,2.212,1.788,4,4,4h40c2.212,0,4-1.788,4-4C488,137.788,486.212,136,484,136z"/> </g> </g> <g> <g> <path d="M428,56h-16c-2.212,0-4,1.788-4,4v24c0,2.212,1.788,4,4,4c2.212,0,4-1.788,4-4V64h8v20c0,2.212,1.788,4,4,4 c2.212,0,4-1.788,4-4V60C432,57.788,430.212,56,428,56z"/> </g> </g> </g>
</svg>